<?xml version="1.0" encoding="utf-8"?>
<!-- Generator: Adobe Illustrator 25.3.1, SVG Export Plug-In . SVG Version: 6.00 Build 0)  -->
<svg version="1.1" id="Layer_1" xmlns="http://www.w3.org/2000/svg" xmlns:xlink="http://www.w3.org/1999/xlink" x="0px" y="0px"
	 viewBox="0 0 335.93 286.9" style="enable-background:new 0 0 335.93 286.9;" xml:space="preserve">
<g id="Layer_2_1_">
	<g id="Graphic_Elements">
		
			<linearGradient id="SVGID_1_" gradientUnits="userSpaceOnUse" x1="58.1148" y1="458.4957" x2="96.3248" y2="501.1557" gradientTransform="matrix(1 0 0 1 0 -212)">
			<stop  offset="0" style="stop-color:#7A7A7A"/>
			<stop  offset="0.04" style="stop-color:#707070"/>
			<stop  offset="0.23" style="stop-color:#4D4D4D"/>
			<stop  offset="0.42" style="stop-color:#313131"/>
			<stop  offset="0.62" style="stop-color:#1D1D1D"/>
			<stop  offset="0.81" style="stop-color:#111111"/>
			<stop  offset="1" style="stop-color:#0D0D0D"/>
		</linearGradient>
		<path style="fill:url(#SVGID_1_);" d="M68.79,250.94h18.82c4.73,0,8.57,3.84,8.57,8.57v18.82c0,4.73-3.84,8.57-8.57,8.57H68.79
			c-4.73,0-8.57-3.84-8.57-8.57v-18.82C60.22,254.78,64.06,250.94,68.79,250.94z"/>
		<path style="fill:none;stroke:#FFFFFF;stroke-width:1.5;stroke-miterlimit:10;" d="M78,256.74h-4.8l-1,1.05v2.64l0.28,1.22h11.41
			l0.48-1.22v-2.64l-0.86-1.05H78z"/>
		<path style="fill:none;stroke:#FFFFFF;stroke-width:1.5;stroke-miterlimit:10;" d="M72.66,262.6c-0.38,0.44-0.75,0.89-1.14,1.32
			v15.67c0.38,0.51,0.75,1,1.14,1.51h11.07l1.15-1.71c-0.07-5.16-0.13-10.32-0.2-15.48l-1.14-1.33L72.66,262.6z"/>
		<path style="fill:#0B78E3;" d="M75.42,266.25h5.19c0.4,0,0.72,0.32,0.72,0.72v9.38c0,0.4-0.32,0.72-0.72,0.72h-5.19
			c-0.4,0-0.72-0.32-0.72-0.72v-9.38C74.7,266.57,75.02,266.25,75.42,266.25z"/>
		
			<linearGradient id="SVGID_2_" gradientUnits="userSpaceOnUse" x1="-2.1052" y1="458.4957" x2="36.1048" y2="501.1557" gradientTransform="matrix(1 0 0 1 0 -212)">
			<stop  offset="0" style="stop-color:#7A7A7A"/>
			<stop  offset="0.04" style="stop-color:#707070"/>
			<stop  offset="0.23" style="stop-color:#4D4D4D"/>
			<stop  offset="0.42" style="stop-color:#313131"/>
			<stop  offset="0.62" style="stop-color:#1D1D1D"/>
			<stop  offset="0.81" style="stop-color:#111111"/>
			<stop  offset="1" style="stop-color:#0D0D0D"/>
		</linearGradient>
		<path style="fill:url(#SVGID_2_);" d="M8.57,250.94h18.82c4.73,0,8.57,3.84,8.57,8.57v18.82c0,4.73-3.84,8.57-8.57,8.57H8.57
			c-4.73,0-8.57-3.84-8.57-8.57v-18.82C0,254.78,3.84,250.94,8.57,250.94z"/>
		<path style="fill:none;stroke:#FFFFFF;stroke-width:1.5;stroke-miterlimit:10;" d="M17.75,256.74H13l-1.05,1.05v2.64l0.28,1.22
			h11.45l0.47-1.22v-2.64l-0.86-1.05H17.75z"/>
		<path style="fill:none;stroke:#FFFFFF;stroke-width:1.5;stroke-miterlimit:10;" d="M12.44,262.6c-0.38,0.44-0.75,0.89-1.14,1.32
			v15.67c0.38,0.51,0.75,1,1.14,1.51h11.07l1.15-1.71c-0.07-5.16-0.14-10.32-0.2-15.48l-1.14-1.33L12.44,262.6z"/>
		<path style="fill:#EA3B00;" d="M15.2,266.25h5.19c0.4,0,0.72,0.32,0.72,0.72v9.38c0,0.4-0.32,0.72-0.72,0.72H15.2
			c-0.4,0-0.72-0.32-0.72-0.72v-9.38C14.48,266.57,14.8,266.25,15.2,266.25z"/>
		
			<linearGradient id="SVGID_3_" gradientUnits="userSpaceOnUse" x1="178.1448" y1="458.4957" x2="216.3548" y2="501.1557" gradientTransform="matrix(1 0 0 1 0 -212)">
			<stop  offset="0" style="stop-color:#7A7A7A"/>
			<stop  offset="0.04" style="stop-color:#707070"/>
			<stop  offset="0.23" style="stop-color:#4D4D4D"/>
			<stop  offset="0.42" style="stop-color:#313131"/>
			<stop  offset="0.62" style="stop-color:#1D1D1D"/>
			<stop  offset="0.81" style="stop-color:#111111"/>
			<stop  offset="1" style="stop-color:#0D0D0D"/>
		</linearGradient>
		<path style="fill:url(#SVGID_3_);" d="M188.82,250.94h18.82c4.73,0,8.57,3.84,8.57,8.57v18.82c0,4.73-3.84,8.57-8.57,8.57h-18.82
			c-4.73,0-8.57-3.84-8.57-8.57v-18.82C180.25,254.78,184.09,250.94,188.82,250.94z"/>
		<path style="fill:none;stroke:#FFFFFF;stroke-width:1.5;stroke-miterlimit:10;" d="M198.05,256.74h-4.76l-1,1.05v2.64l0.28,1.22
			H204l0.48-1.22v-2.64l-0.86-1.05H198.05z"/>
		<path style="fill:none;stroke:#FFFFFF;stroke-width:1.5;stroke-miterlimit:10;" d="M192.75,262.6c-0.38,0.44-0.75,0.89-1.14,1.32
			v15.67c0.38,0.51,0.75,1,1.14,1.51h11.07l1.15-1.71c-0.07-5.16-0.13-10.32-0.2-15.48l-1.14-1.33L192.75,262.6z"/>
		<path style="fill:#8D4DE8;" d="M195.51,266.25h5.19c0.4,0,0.72,0.32,0.72,0.72v9.38c0,0.4-0.32,0.72-0.72,0.72h-5.19
			c-0.4,0-0.72-0.32-0.72-0.72v-9.38C194.79,266.57,195.11,266.25,195.51,266.25z"/>
		
			<linearGradient id="SVGID_4_" gradientUnits="userSpaceOnUse" x1="237.9748" y1="458.4957" x2="276.1848" y2="501.1557" gradientTransform="matrix(1 0 0 1 0 -212)">
			<stop  offset="0" style="stop-color:#7A7A7A"/>
			<stop  offset="0.04" style="stop-color:#707070"/>
			<stop  offset="0.23" style="stop-color:#4D4D4D"/>
			<stop  offset="0.42" style="stop-color:#313131"/>
			<stop  offset="0.62" style="stop-color:#1D1D1D"/>
			<stop  offset="0.81" style="stop-color:#111111"/>
			<stop  offset="1" style="stop-color:#0D0D0D"/>
		</linearGradient>
		<path style="fill:url(#SVGID_4_);" d="M248.65,250.94h18.82c4.73,0,8.57,3.84,8.57,8.57v18.82c0,4.73-3.84,8.57-8.57,8.57h-18.82
			c-4.73,0-8.57-3.84-8.57-8.57v-18.82C240.08,254.78,243.92,250.94,248.65,250.94z"/>
		<path style="fill:none;stroke:#FFFFFF;stroke-width:1.5;stroke-miterlimit:10;" d="M257.82,256.74h-4.77l-1.05,1.05v2.64
			l0.29,1.22h11.46l0.47-1.22v-2.64l-0.85-1.05H257.82z"/>
		<path style="fill:none;stroke:#FFFFFF;stroke-width:1.5;stroke-miterlimit:10;" d="M252.51,262.6c-0.37,0.44-0.75,0.89-1.14,1.32
			v15.67c0.39,0.51,0.75,1,1.14,1.51h11.08l1.15-1.71c-0.07-5.16-0.14-10.32-0.2-15.48l-1.14-1.33L252.51,262.6z"/>
		<path style="fill:#FF00CF;" d="M262.54,270.34c0.02-1.28-1-2.34-2.28-2.36c-0.92-0.01-1.76,0.52-2.15,1.36
			c-0.53-1.16-1.9-1.68-3.07-1.15c-1.17,0.53-1.68,1.91-1.15,3.07c0.09,0.2,0.21,0.38,0.35,0.55c0.08,0.09,0.17,0.18,0.26,0.26
			l3.54,3.51h0.08c0.03,0.01,0.05,0.01,0.08,0l3.67-3.64l0,0c0.43-0.44,0.67-1.03,0.67-1.64V270.34z"/>
		
			<linearGradient id="SVGID_5_" gradientUnits="userSpaceOnUse" x1="297.8748" y1="458.4957" x2="336.0848" y2="501.1557" gradientTransform="matrix(1 0 0 1 0 -212)">
			<stop  offset="0" style="stop-color:#7A7A7A"/>
			<stop  offset="0.04" style="stop-color:#707070"/>
			<stop  offset="0.23" style="stop-color:#4D4D4D"/>
			<stop  offset="0.42" style="stop-color:#313131"/>
			<stop  offset="0.62" style="stop-color:#1D1D1D"/>
			<stop  offset="0.81" style="stop-color:#111111"/>
			<stop  offset="1" style="stop-color:#0D0D0D"/>
		</linearGradient>
		<path style="fill:url(#SVGID_5_);" d="M308.55,250.94h18.82c4.73,0,8.57,3.84,8.57,8.57v18.82c0,4.73-3.84,8.57-8.57,8.57h-18.82
			c-4.73,0-8.57-3.84-8.57-8.57v-18.82C299.98,254.78,303.82,250.94,308.55,250.94z"/>
		<path style="fill:none;stroke:#FFFFFF;stroke-width:1.5;stroke-miterlimit:10;" d="M317.72,256.74H313l-1,1.05v2.64l0.28,1.22
			h11.46l0.48-1.22v-2.64l-0.86-1.05H317.72z"/>
		<path style="fill:none;stroke:#FFFFFF;stroke-width:1.5;stroke-miterlimit:10;" d="M312.42,262.6c-0.38,0.44-0.75,0.89-1.14,1.32
			v15.67c0.38,0.51,0.75,1,1.14,1.51h11.07l1.15-1.71c-0.07-5.16-0.14-10.32-0.2-15.48l-1.14-1.33L312.42,262.6z"/>
		<path style="fill:#7ED321;" d="M315.18,266.25h5.19c0.4,0,0.72,0.32,0.72,0.72v9.38c0,0.4-0.32,0.72-0.72,0.72h-5.19
			c-0.4,0-0.72-0.32-0.72-0.72v-9.38C314.46,266.57,314.78,266.25,315.18,266.25z"/>
		
			<linearGradient id="SVGID_6_" gradientUnits="userSpaceOnUse" x1="117.8422" y1="458.498" x2="156.0422" y2="501.158" gradientTransform="matrix(1 0 0 1 0 -212)">
			<stop  offset="0" style="stop-color:#7A7A7A"/>
			<stop  offset="0.04" style="stop-color:#707070"/>
			<stop  offset="0.23" style="stop-color:#4D4D4D"/>
			<stop  offset="0.42" style="stop-color:#313131"/>
			<stop  offset="0.62" style="stop-color:#1D1D1D"/>
			<stop  offset="0.81" style="stop-color:#111111"/>
			<stop  offset="1" style="stop-color:#0D0D0D"/>
		</linearGradient>
		<path style="fill:url(#SVGID_6_);" d="M128.51,250.94h18.82c4.73,0,8.57,3.84,8.57,8.57v18.82c0,4.73-3.84,8.57-8.57,8.57h-18.82
			c-4.73,0-8.57-3.84-8.57-8.57v-18.82C119.94,254.78,123.78,250.94,128.51,250.94z"/>
		<path style="fill:none;stroke:#FFFFFF;stroke-width:1.5;stroke-miterlimit:10;" d="M137.75,256.68H133l-1,1v2.65l0.29,1.22h11.46
			l0.47-1.22v-2.65l-0.85-1H137.75z"/>
		<path style="fill:none;stroke:#FFFFFF;stroke-width:1.5;stroke-miterlimit:10;" d="M132.44,262.54c-0.37,0.44-0.75,0.88-1.14,1.32
			v15.67c0.38,0.5,0.75,1,1.14,1.5h11.07l1.15-1.7c-0.06-5.16-0.12-10.32-0.19-15.49c-0.39-0.43-0.75-0.88-1.14-1.32L132.44,262.54z
			"/>
		<path style="fill:#E6A63C;" d="M135.2,266.18h5.19c0.4,0,0.72,0.32,0.72,0.72v9.38c0,0.4-0.32,0.72-0.72,0.72h-5.19
			c-0.4,0-0.72-0.32-0.72-0.72v-9.38C134.48,266.5,134.8,266.18,135.2,266.18z"/>
		<polyline style="fill:none;stroke:#FFFFFF;stroke-width:1.5;stroke-miterlimit:10;" points="17.8,247.94 17.8,229.88 
			78.26,229.88 168.37,229.88 168.37,178.31 		"/>
		<polygon style="fill:#FFFFFF;" points="15.06,247.58 20.53,247.58 17.8,250.31 		"/>
		<line style="fill:none;stroke:#FFFFFF;stroke-width:1.5;stroke-miterlimit:10;" x1="77.8" y1="247.94" x2="77.8" y2="229.88"/>
		<polygon style="fill:#FFFFFF;" points="75.06,247.58 80.53,247.58 77.8,250.31 		"/>
		<line style="fill:none;stroke:#FFFFFF;stroke-width:1.5;stroke-miterlimit:10;" x1="137.8" y1="247.94" x2="137.8" y2="229.98"/>
		<polygon style="fill:#FFFFFF;" points="135.06,247.58 140.53,247.58 137.8,250.31 		"/>
		<polyline style="fill:none;stroke:#FFFFFF;stroke-width:1.5;stroke-miterlimit:10;" points="318.02,247.94 318.02,229.88 
			168.37,229.88 		"/>
		<polygon style="fill:#FFFFFF;" points="315.28,247.58 320.75,247.58 318.02,250.31 		"/>
		<line style="fill:none;stroke:#FFFFFF;stroke-width:1.5;stroke-miterlimit:10;" x1="257.8" y1="247.94" x2="257.8" y2="229.88"/>
		<polygon style="fill:#FFFFFF;" points="255.06,247.58 260.53,247.58 257.8,250.31 		"/>
		<line style="fill:none;stroke:#FFFFFF;stroke-width:1.5;stroke-miterlimit:10;" x1="197.8" y1="247.94" x2="197.8" y2="229.88"/>
		<polygon style="fill:#FFFFFF;" points="195.06,247.58 200.53,247.58 197.8,250.31 		"/>
		<text transform="matrix(1 0 0 1 9.3979 222.8156)" style="fill:#FFFFFF; font-family:'Helvetica-Bold'; font-size:14px;">55%</text>
		<text transform="matrix(1 0 0 1 65.617 222.8157)" style="fill:#FFFFFF; font-family:'Helvetica-Bold'; font-size:14px;">10%</text>
		<text transform="matrix(1 0 0 1 125.3461 222.8159)" style="fill:#FFFFFF; font-family:'Helvetica-Bold'; font-size:14px;">10%</text>
		<text transform="matrix(1 0 0 1 187.1299 222.8157)" style="fill:#FFFFFF; font-family:'Helvetica-Bold'; font-size:14px;">10%</text>
		<text transform="matrix(1 0 0 1 245.4121 222.8149)" style="fill:#FFFFFF; font-family:'Helvetica-Bold'; font-size:14px;">10%</text>
		<text transform="matrix(1 0 0 1 308.8262 222.8143)" style="fill:#FFFFFF; font-family:'Helvetica-Bold'; font-size:14px;">5%</text>
		<g id="freepik--Coins--inject-1">
			<path style="fill:#CDD128;" d="M172.82,48.54c-1.14,2.76-7.84,2.57-14.86-0.32S146.17,40.74,147.31,38c0.26-0.64,1-3,1.79-3.36
				c2.61-1.11,7.59,1.38,13,3.6c5,2.06,10.76,3.41,11.65,6.13C174.28,46,173.14,47.75,172.82,48.54z"/>
			<path style="opacity:0.2;enable-background:new    ;" d="M173.74,44.34c0.43,2.17-0.51,3.21-0.92,4.2s-1.6,1.63-3.26,1.86
				c-0.21,0.04-0.42,0.06-0.63,0.07c-1.28,0.08-2.56,0.01-3.82-0.2c-0.18-0.01-0.36-0.04-0.54-0.08c-1.48-0.27-2.94-0.65-4.36-1.13
				l-0.52-0.17c-0.57-0.2-1.16-0.42-1.74-0.67s-1.15-0.51-1.7-0.75l-0.47-0.23c-1.31-0.64-2.57-1.37-3.78-2.19l-0.42-0.3
				c-1.04-0.74-2-1.59-2.85-2.55l-0.36-0.42c-1.1-1.41-1.54-2.74-1.1-3.81c0.28-0.68,0.9-3,1.79-3.37c1.09-0.3,2.24-0.3,3.33,0
				l0.52,0.13c3.11,0.97,6.16,2.14,9.13,3.49c3.9,1.61,8.52,3.28,10.78,5.21l0.39,0.36C173.4,43.96,173.58,44.14,173.74,44.34z"/>
			<g style="opacity:0.2;">
				<path d="M153.19,34.28l-0.23,0.44l-4.19,7.48l-0.36-0.43l4-7.18l0.31-0.55L153.19,34.28z"/>
			</g>
			<g style="opacity:0.2;">
				<path d="M156.35,37.34L152,45.06l-0.42-0.3l4.29-7.66L156.35,37.34z"/>
			</g>
			<g style="opacity:0.2;">
				<path d="M164.28,41.77l-4.07,7.29l-0.52-0.17l4.12-7.4L164.28,41.77z"/>
			</g>
			<g style="opacity:0.2;">
				<path d="M160.59,39.71l-4.33,7.76l-0.47-0.23l4.36-7.81L160.59,39.71z"/>
			</g>
			<g style="opacity:0.2;">
				<path d="M169.08,43.18l-4,7.09c-0.18-0.01-0.36-0.04-0.54-0.08l4.06-7.27L169.08,43.18z"/>
			</g>
			<path style="fill:#D6E00E;" d="M173.71,46.13c-1.14,2.76-7.76,2.65-14.78-0.24s-11.79-7.49-10.65-10.25s7.76-2.65,14.78,0.24
				S174.85,43.35,173.71,46.13z"/>
			<path style="opacity:0.2;fill:#FFFFFF;enable-background:new    ;" d="M171.32,45.12c-0.8,2-6,1.68-11.52-0.61
				s-9.41-5.74-8.61-7.69s6-1.68,11.53,0.61S172.13,43.17,171.32,45.12z"/>
			<path style="fill:#CDD128;" d="M208.31,23.54c1.83,2.36-1.66,8.09-7.67,12.74s-12.36,6.5-14.19,4.12c-0.42-0.55-2.13-2.38-2-3.23
				c0.34-2.82,5-5.9,9.58-9.47c4.3-3.33,8.31-7.65,11.12-7.06C206.83,21,207.79,22.87,208.31,23.54z"/>
			<path style="opacity:0.2;enable-background:new    ;" d="M205.13,20.66c2.09,0.71,2.53,2.06,3.18,2.88s0.63,2.2,0,3.76
				c-0.07,0.19-0.16,0.38-0.25,0.58c-0.57,1.14-1.26,2.22-2.06,3.21l-0.35,0.43c-0.97,1.15-2.02,2.23-3.15,3.23l-0.4,0.35
				c-0.45,0.39-0.94,0.79-1.44,1.18s-1,0.75-1.5,1.09c-0.14,0.11-0.29,0.2-0.43,0.3c-1.19,0.81-2.43,1.53-3.73,2.15l-0.46,0.23
				c-1.16,0.53-2.38,0.94-3.63,1.2l-0.55,0.1c-1.76,0.26-3.14,0-3.85-0.93c-0.45-0.59-2.18-2.3-2-3.23c0.27-1.1,0.84-2.1,1.65-2.9
				l0.37-0.39c2.36-2.21,4.85-4.28,7.47-6.18c3.34-2.57,7.09-5.76,9.89-6.76l0.51-0.16C204.64,20.74,204.88,20.69,205.13,20.66z"/>
			<g style="opacity:0.2;">
				<path d="M186.19,33.48l0.25,0.42l4.41,7.35l-0.54,0.1l-4.23-7.07l-0.33-0.51L186.19,33.48z"/>
			</g>
			<g style="opacity:0.2;">
				<path d="M190.4,32.25l4.6,7.57c-0.16,0.09-0.32,0.15-0.47,0.23L190,32.52L190.4,32.25z"/>
			</g>
			<g style="opacity:0.2;">
				<path d="M198.19,27.59l4.3,7.17l-0.4,0.34l-4.35-7.25L198.19,27.59z"/>
			</g>
			<g style="opacity:0.2;">
				<path d="M194.57,29.76l4.57,7.61c-0.14,0.11-0.28,0.2-0.42,0.3l-4.6-7.67L194.57,29.76z"/>
			</g>
			<g style="opacity:0.2;">
				<path d="M201.8,24.11l4.18,7l-0.34,0.43l-4.28-7.14L201.8,24.11z"/>
			</g>
			
				<ellipse transform="matrix(0.7906 -0.6124 0.6124 0.7906 22.6471 126.1645)" style="fill:#D6E00E;" cx="195.77" cy="29.97" rx="13.75" ry="5.41"/>
			
				<ellipse transform="matrix(0.7906 -0.6124 0.6124 0.7906 22.8058 126.2691)" style="opacity:0.2;fill:#FFFFFF;enable-background:new    ;" cx="196.01" cy="29.79" rx="10.89" ry="3.83"/>
			<path style="fill:#CDD128;" d="M183.45,12.47c-0.58,3.39-8.19,4.82-16.8,3.27s-15.1-5.52-14.5-8.91
				c0.14-0.79,0.38-3.66,1.19-4.23c2.67-1.88,8.89-0.31,15.5,0.87c6.18,1.09,12.94,1.18,14.61,4
				C184.47,9.25,183.62,11.5,183.45,12.47z"/>
			<path style="opacity:0.2;enable-background:new    ;" d="M183.45,7.5c1,2.34,0.21,3.74,0,4.95s-1.39,2.23-3.2,2.9
				c-0.23,0.09-0.46,0.17-0.69,0.23c-1.42,0.4-2.88,0.64-4.35,0.72c-0.21-0.02-0.42-0.02-0.63,0c-1.73,0.06-3.47,0-5.19-0.19
				l-0.6-0.08c-0.7-0.09-1.41-0.19-2.13-0.32s-1.41-0.27-2.1-0.43l-0.58-0.14c-1.62-0.4-3.21-0.92-4.75-1.55l-0.55-0.22
				c-1.35-0.58-2.64-1.31-3.83-2.17l-0.52-0.39c-1.6-1.31-2.41-2.71-2.18-4c0.15-0.84,0.28-3.6,1.18-4.23
				c1.14-0.63,2.45-0.92,3.75-0.82h0.62c3.74,0.33,7.46,0.89,11.13,1.68c4.79,0.86,10.4,1.6,13.42,3.22
				c0.18,0.09,0.35,0.2,0.51,0.31C183,7.13,183.24,7.3,183.45,7.5z"/>
			<g style="opacity:0.2;">
				<path d="M157.87,1.26L157.7,1.8l-2.86,9.45l-0.51-0.39l2.75-9.06l0.21-0.71L157.87,1.26z"/>
			</g>
			<g style="opacity:0.2;">
				<path d="M162.17,3.9l-2.95,9.73l-0.55-0.23l2.94-9.68L162.17,3.9z"/>
			</g>
			<g style="opacity:0.2;">
				<path d="M172.18,7l-2.8,9.21l-0.6-0.08l2.83-9.31L172.18,7z"/>
			</g>
			<g style="opacity:0.2;">
				<path d="M167.53,5.54l-3,9.78l-0.59-0.14l3-9.83L167.53,5.54z"/>
			</g>
			<g style="opacity:0.2;">
				<path d="M177.93,7.35l-2.72,9c-0.21-0.01-0.43-0.01-0.64,0l2.79-9.17L177.93,7.35z"/>
			</g>
			
				<ellipse transform="matrix(0.1752 -0.9845 0.9845 0.1752 132.1372 171.21)" style="fill:#D6E00E;" cx="168.25" cy="6.74" rx="6.23" ry="15.84"/>
			
				<ellipse transform="matrix(0.1752 -0.9845 0.9845 0.1752 132.3546 171.5953)" style="opacity:0.2;fill:#FFFFFF;enable-background:new    ;" cx="168.59" cy="6.8" rx="4.4" ry="12.53"/>
		</g>
		<g id="freepik--Wallet--inject-1">
			<path style="fill:#203B5B;" d="M228.41,99l-53,3.09c-1.87,0.11-3.71,0.56-5.42,1.32l-57.56,25.75c-2.08,0.91-3.24,3.16-2.78,5.38
				l9.51,45c0.58,2.62,3.17,4.28,5.79,3.7h0.01c0.4-0.09,0.78-0.23,1.15-0.41l56.82-28.36l52.46-1.76c2.51-0.07,4.49-2.16,4.43-4.67
				c-0.01-0.19-0.03-0.38-0.06-0.57l-7-43.08C232.38,102.13,230.69,98.91,228.41,99z"/>
			<path style="opacity:0.3;fill:#000038;enable-background:new    ;" d="M228.41,99l-53,3.09c-1.87,0.11-3.71,0.56-5.42,1.32
				l-57.56,25.75c-2.08,0.91-3.24,3.16-2.78,5.38l9.51,45c0.58,2.62,3.17,4.28,5.79,3.7h0.01c0.4-0.09,0.78-0.23,1.15-0.41
				l56.82-28.36l52.46-1.76c2.51-0.07,4.49-2.16,4.43-4.67c-0.01-0.19-0.03-0.38-0.06-0.57l-7-43.08
				C232.38,102.13,230.69,98.91,228.41,99z"/>
			
				<rect x="114.17" y="72.76" transform="matrix(0.7353 -0.6778 0.6778 0.7353 -39.0395 119.2108)" style="fill:#299B29;" width="37.82" height="73.64"/>
			<polygon style="opacity:0.5;fill:#FAFAFA;enable-background:new    ;" points="171.94,123.84 144.12,149.47 94.22,95.33 
				112.47,78.51 122.04,69.69 123.63,71.42 			"/>
			
				<rect x="116.61" y="75.19" transform="matrix(0.7353 -0.6778 0.6778 0.7353 -39.0151 119.3679)" style="fill:none;stroke:#258C2A;stroke-width:1;stroke-miterlimit:10.0004;" width="33.38" height="68.88"/>
			
				<ellipse transform="matrix(0.7353 -0.6778 0.6778 0.7353 -38.8515 119.0134)" style="fill:#33AA3F;" cx="132.93" cy="109.24" rx="6.93" ry="8.69"/>
			<polygon style="opacity:0.1;enable-background:new    ;" points="143.83,127.5 133.95,130.91 112.47,78.51 122.04,69.69 
				123.63,71.42 			"/>
			
				<rect x="121.62" y="52.71" transform="matrix(0.9401 -0.3409 0.3409 0.9401 -22.1041 53.2703)" style="fill:#299B29;" width="37.82" height="73.64"/>
			
				<rect x="121.62" y="52.71" transform="matrix(0.9401 -0.3409 0.3409 0.9401 -22.1041 53.2703)" style="opacity:0.5;fill:#FAFAFA;enable-background:new    ;" width="37.82" height="73.64"/>
			
				<rect x="123.91" y="55.37" transform="matrix(0.9404 -0.3401 0.3401 0.9404 -22.1574 53.1684)" style="fill:none;stroke:#258C2A;stroke-width:0.9996;stroke-miterlimit:9.9961;" width="33.37" height="68.85"/>
			
				<ellipse transform="matrix(0.9401 -0.3409 0.3409 0.9401 -21.9701 53.239)" style="fill:#34A33C;" cx="140.51" cy="89.14" rx="6.93" ry="8.69"/>
			<path style="fill:#19345B;" d="M228.75,100.81l-52.26,2.94c-1.86,0.1-3.68,0.55-5.37,1.32l-56.71,25.6
				c-2.06,0.93-3.2,3.17-2.73,5.38l9.51,45c0.55,2.6,3.11,4.26,5.71,3.71c0.4-0.09,0.79-0.23,1.16-0.41l56-28.2l51.75-1.64
				c2.48-0.08,4.44-2.15,4.36-4.64v-0.01c-0.01-0.19-0.03-0.39-0.06-0.58l-7-43.07C232.68,104,231,100.74,228.75,100.81z"/>
			
				<line style="opacity:0.2;fill:none;stroke:#000000;stroke-width:2;stroke-linecap:round;stroke-linejoin:round;enable-background:new    ;" x1="178.61" y1="111.63" x2="223.46" y2="108.87"/>
			
				<line style="opacity:0.2;fill:none;stroke:#000000;stroke-width:2;stroke-linecap:round;stroke-linejoin:round;enable-background:new    ;" x1="173.24" y1="112.79" x2="181.43" y2="150.42"/>
			<path style="opacity:0.2;fill:#9EFAFA;enable-background:new    ;" d="M118.61,146.77l5.78,28.94
				C124.39,175.71,128.82,164.23,118.61,146.77z"/>
			<path style="opacity:0.2;fill:#9EFAFA;enable-background:new    ;" d="M119.37,147.11c0.2,0.51,51.32-21.43,51.32-21.43
				c0.29,10.14-5.16,19.59-14.09,24.41C141.21,158.72,119.37,147.11,119.37,147.11z"/>
			<circle style="fill:#132137;" cx="153.33" cy="145.75" r="2.21"/>
			<path style="opacity:0.2;enable-background:new    ;" d="M170.72,125.68c0,0,6.34,9.55,4.8,25.8"/>
			<g style="opacity:0.2;">
				
					<line style="fill:none;stroke:#FAFAFA;stroke-linecap:round;stroke-linejoin:round;" x1="116.17" y1="135.4" x2="117.35" y2="134.88"/>
				
					<line style="fill:none;stroke:#FAFAFA;stroke-linecap:round;stroke-linejoin:round;stroke-dasharray:5.2,5.2;" x1="119.79" y1="133.8" x2="167.53" y2="112.69"/>
				
					<line style="fill:none;stroke:#FAFAFA;stroke-linecap:round;stroke-linejoin:round;" x1="168.76" y1="112.15" x2="169.93" y2="111.63"/>
			</g>
			
				<line style="opacity:0.2;fill:none;stroke:#000000;stroke-width:2;stroke-linecap:round;stroke-linejoin:round;enable-background:new    ;" x1="180.12" y1="120.09" x2="224.96" y2="117.33"/>
			
				<line style="opacity:0.2;fill:none;stroke:#000000;stroke-width:2;stroke-linecap:round;stroke-linejoin:round;enable-background:new    ;" x1="182.13" y1="130.64" x2="226.98" y2="127.88"/>
		</g>
		<g id="freepik--Card--inject-1">
			<path style="fill:#EEB763;" d="M220.1,65.66l-10.87,37.83c-0.74,2.59-2.99,4.47-5.67,4.75c-0.83,0.08-1.67,0-2.48-0.23l-20.79-6
				c-3.5-1.01-5.52-4.66-4.52-8.16L186.65,56c1.02-3.49,4.66-5.51,8.16-4.51l20.8,6C219.1,58.51,221.11,62.17,220.1,65.66z"/>
			<path style="opacity:0.2;enable-background:new    ;" d="M220.1,65.66l-10.87,37.83c-0.74,2.59-2.99,4.47-5.67,4.75
				c-0.83,0.08-1.67,0-2.48-0.23l-20.79-6c-3.5-1.01-5.52-4.66-4.52-8.16L186.65,56c1.02-3.49,4.66-5.51,8.16-4.51l20.8,6
				C219.1,58.51,221.11,62.17,220.1,65.66z"/>
			<path style="fill:#EA9C36;" d="M218.3,66.11l-10.88,37.83c-0.56,1.95-1.99,3.54-3.87,4.3c-0.83,0.08-1.67,0-2.48-0.23l-20.78-6
				c-3.5-1.01-5.52-4.66-4.52-8.16L186.65,56c0.56-1.95,1.99-3.53,3.87-4.28c0.84-0.07,1.68,0.03,2.48,0.28l20.76,6
				C217.24,59,219.26,62.62,218.3,66.11z"/>
			<path style="opacity:0.3;fill:#FAFAFA;enable-background:new    ;" d="M218.3,65.71l-10.88,38c-0.56,1.96-1.98,3.55-3.87,4.31
				c-0.83,0.08-1.68,0.01-2.48-0.23l-20.78-6c-3.5-1.02-5.52-4.68-4.52-8.19l10.88-38c0.56-1.95,1.98-3.54,3.87-4.3
				c0.83-0.09,1.68-0.01,2.48,0.22l20.76,6C217.27,58.54,219.3,62.2,218.3,65.71z"/>
			
				<rect x="169.18" y="82.07" transform="matrix(0.2713 -0.9625 0.9625 0.2713 53.9346 237.6916)" style="fill:#FAFAFA;" width="29.53" height="2.31"/>
			<polygon style="fill:#FAFAFA;" points="184.24,98.65 182.02,98 190.02,69.59 192.24,70.23 			"/>
			<polygon style="fill:#FAFAFA;" points="187.47,99.58 185.25,98.94 193.26,70.53 195.48,71.17 			"/>
			
				<rect x="188.56" y="87.64" transform="matrix(0.2713 -0.9625 0.9625 0.2713 62.7018 260.4017)" style="opacity:0.5;enable-background:new    ;" width="29.53" height="2.31"/>
			<path style="fill:#FAFAFA;" d="M208.15,66.85l-1.08,3.86l-1.32-0.37c-1.34-0.37-2.12-1.75-1.75-3.09l0,0l0.72-2.57l2.66,0.76
				C207.98,65.61,208.33,66.24,208.15,66.85C208.15,66.84,208.15,66.85,208.15,66.85z"/>
			<path style="fill:#FAFAFA;" d="M207.52,65l-2.67-0.76l0.8-2.82c0.37-1.33,1.75-2.1,3.08-1.73h0.01l0,0l1.37,0.39l-1.19,4.15
				c-0.17,0.6-0.78,0.95-1.38,0.78l0,0L207.52,65z"/>
			<path style="fill:#FAFAFA;" d="M210,66.21l2.68,0.77L212,69.5c-0.37,1.32-1.74,2.1-3.07,1.73l0,0l0,0l-1.39-0.39l1.1-3.86
				c0.17-0.6,0.8-0.94,1.4-0.77L210,66.21z"/>
			<path style="fill:#FAFAFA;" d="M213.67,63.64l-0.81,2.86l-2.68-0.77c-0.6-0.17-0.94-0.79-0.77-1.38c0,0,0,0,0-0.01l1.19-4.16
				l1.34,0.38C213.27,60.93,214.04,62.31,213.67,63.64z"/>
		</g>
	</g>
</g>
</svg>
