<?xml version="1.0" encoding="utf-8"?>
<!-- Generator: Adobe Illustrator 25.3.1, SVG Export Plug-In . SVG Version: 6.00 Build 0)  -->
<svg version="1.1" id="Layer_1" xmlns="http://www.w3.org/2000/svg" xmlns:xlink="http://www.w3.org/1999/xlink" x="0px" y="0px"
	 viewBox="0 0 35.96 35.96" style="enable-background:new 0 0 35.96 35.96;" xml:space="preserve">
<g id="Layer_2_1_">
	<g id="Layer_1-2">
		<g id="Layer_2-2">
			<g id="Graphic_Elements">
				
					<linearGradient id="SVGID_1_" gradientUnits="userSpaceOnUse" x1="-2.104" y1="-169.5546" x2="36.106" y2="-212.2146" gradientTransform="matrix(1 0 0 -1 0 -174)">
					<stop  offset="0" style="stop-color:#7A7A7A"/>
					<stop  offset="0.04" style="stop-color:#707070"/>
					<stop  offset="0.23" style="stop-color:#4D4D4D"/>
					<stop  offset="0.42" style="stop-color:#313131"/>
					<stop  offset="0.62" style="stop-color:#1D1D1D"/>
					<stop  offset="0.81" style="stop-color:#111111"/>
					<stop  offset="1" style="stop-color:#0D0D0D"/>
				</linearGradient>
				<path style="fill:url(#SVGID_1_);" d="M8.57,0h18.82c4.73-0.02,8.59,3.8,8.61,8.53c0,0.01,0,0.03,0,0.04v18.82
					c0.02,4.73-3.8,8.59-8.53,8.61c-0.03,0-0.05,0-0.08,0H8.57C3.84,36,0,32.16,0,27.43c0-0.01,0-0.03,0-0.04V8.57
					C0,3.84,3.84,0,8.57,0C8.57,0,8.57,0,8.57,0z"/>
				<path style="fill:none;stroke:#FFFFFF;stroke-width:1.5;stroke-miterlimit:10;" d="M17.75,5.8H13l-1,1.05v2.64l0.28,1.22h11.4
					l0.47-1.22V6.85l-0.86-1L17.75,5.8z"/>
				<path style="fill:none;stroke:#FFFFFF;stroke-width:1.5;stroke-miterlimit:10;" d="M12.44,11.66c-0.38,0.44-0.75,0.89-1.14,1.32
					v15.67l1.14,1.51h11.07l1.15-1.71c-0.07-5.16-0.14-10.32-0.2-15.48l-1.14-1.33L12.44,11.66z"/>
				<path style="fill:#8D4DE8;" d="M15.2,15.31h5.19c0.4,0,0.72,0.32,0.72,0.72v9.38c0,0.4-0.32,0.72-0.72,0.72H15.2
					c-0.4,0-0.72-0.32-0.72-0.72V16C14.5,15.61,14.81,15.31,15.2,15.31z"/>
			</g>
		</g>
	</g>
</g>
</svg>
