<?xml version="1.0" encoding="utf-8"?>
<!-- Generator: Adobe Illustrator 25.3.1, SVG Export Plug-In . SVG Version: 6.00 Build 0)  -->
<svg version="1.1" id="Layer_1" xmlns="http://www.w3.org/2000/svg" xmlns:xlink="http://www.w3.org/1999/xlink" x="0px" y="0px"
	 viewBox="0 0 374.2 362.4" style="enable-background:new 0 0 374.2 362.4;" xml:space="preserve">
<g id="Layer_2_1_">
	<g id="Graphic_Elements">
		<rect x="112.2" y="9" style="fill:#1A1B50;" width="158" height="334"/>
		<path style="fill:#E5E4EA;" d="M137.3,44h51.8c7.79,0,14.1,6.31,14.1,14.1v12.8c0,7.79-6.31,14.1-14.1,14.1h-51.8
			c-7.79,0-14.1-6.31-14.1-14.1V58.1C123.2,50.31,129.51,44,137.3,44z"/>
		<path style="fill:#E5E4EA;" d="M230.2,44h40l0,0v41l0,0h-40c-7.73,0-14-6.27-14-14V58C216.2,50.27,222.47,44,230.2,44L230.2,44z"
			/>
		<path style="fill:#FFFFFF;" d="M167.62,313H115c-4.37,0-7.91,3.54-7.92,7.91c0,0,0.38,6.75,1.77,10.78
			c1.26,3.29,3.22,6.28,5.75,8.74c1.96,2.11,4.38,3.74,7.08,4.76c2.58,1.1,6.64,2.1,13.71,2.21s30.06,0,61,0
			c25.44,0,49.33,0.22,53.32-0.11s10.95-0.07,16.48-4.54c3.36-2.57,6.04-5.91,7.81-9.75c2-4.42,2.32-12.11,2.32-12.11
			c-0.01-4.37-3.55-7.91-7.92-7.91h-52.62c-8.8,0-7.7,0-12.08,6.33c-4.58,6.65-13.68,8.34-20.33,3.76
			c-1.47-1.01-2.75-2.29-3.76-3.76C175.26,313,176.34,313,167.62,313z"/>
		<path style="fill:#424242;stroke:#1A1A1A;stroke-width:2;stroke-miterlimit:10;" d="M257.66,1.11l-0.57-0.05h-0.59l0,0
			c-0.37,0-0.73,0-1.1,0H125.55c-0.37,0-0.74,0-1.1,0l0,0c-11.24,0.5-20.13,9.69-20.25,20.94v307c0.09,10.79,8.27,19.79,19,20.9
			h-0.44l1.14,0.11h0.59c0.36,0,0.73,0,1.11,0h129.8c0.37,0,0.73,0,1.1,0h0.59l0.7-0.07c0.34,0,0.67-0.08,1-0.14l0.48-0.08
			l0.49-0.09c0.48-0.1,1-0.22,1.44-0.35l0.47-0.14l0.92-0.3c0.46-0.16,0.91-0.34,1.35-0.53c0.15-0.06,0.3-0.13,0.44-0.2l0.43-0.2
			l0.86-0.44c0.28-0.15,0.56-0.31,0.83-0.48l0.73-0.45l0.08-0.06c0.39-0.26,0.78-0.54,1.16-0.83c0.13-0.09,0.25-0.19,0.37-0.29
			c0.35-0.28,0.7-0.57,1-0.87c0.82-0.75,1.58-1.56,2.27-2.43l0.3-0.37c1-1.31,1.84-2.73,2.52-4.23c0.11-0.24,0.21-0.49,0.3-0.74
			c0.49-1.21,0.85-2.45,1.1-3.73c0.05-0.25,0.1-0.51,0.14-0.77c0.16-1.05,0.24-2.12,0.24-3.18V22
			C276.62,11.2,268.41,2.2,257.66,1.11z M268.41,329c-0.09,6.72-5.3,12.26-12,12.78h-0.36h-0.67H125.55h-0.68h-0.36
			c-6.7-0.52-11.91-6.06-12-12.78V22c0.06-6.79,5.39-12.38,12.17-12.76h19.6c1.06,0.05,1.93,0.86,2.05,1.91c0,0.07,0,0.14,0,0.22
			l0,0c0.3,5.48,4.85,9.76,10.34,9.72h67.59c5.49,0.04,10.04-4.24,10.34-9.72l0,0c-0.01-0.07-0.01-0.15,0-0.22
			c0.11-1.04,0.96-1.85,2-1.91h19.6c6.8,0.37,12.14,5.95,12.21,12.76L268.41,329L268.41,329z"/>
		<path style="fill:#FFFFFF;" d="M126.7,28h127c1.93,0,3.5,1.57,3.5,3.5l0,0c0,1.93-1.57,3.5-3.5,3.5h-127c-1.93,0-3.5-1.57-3.5-3.5
			l0,0C123.2,29.57,124.77,28,126.7,28z"/>
		<ellipse style="fill:#FF0000;" cx="124.23" cy="113" rx="1.03" ry="1"/>
		<path style="fill:#165BA9;" d="M134.48,111H255.2c1.1,0,2,0.9,2,2l0,0c0,1.1-0.9,2-2,2H134.48c-1.1,0-2-0.9-2-2l0,0
			C132.48,111.9,133.38,111,134.48,111z"/>
		<circle style="fill:#0013FF;" cx="124.2" cy="133" r="1"/>
		<path style="fill:#165BA9;" d="M134.2,131h121c1.1,0,2,0.9,2,2l0,0c0,1.1-0.9,2-2,2h-121c-1.1,0-2-0.9-2-2l0,0
			C132.2,131.9,133.1,131,134.2,131z"/>
		<ellipse style="fill:#EDFF00;" cx="124.23" cy="153" rx="1.03" ry="1"/>
		<path style="fill:#165BA9;" d="M134.48,151H255.2c1.1,0,2,0.9,2,2l0,0c0,1.1-0.9,2-2,2H134.48c-1.1,0-2-0.9-2-2l0,0
			C132.48,151.9,133.38,151,134.48,151z"/>
		<ellipse style="fill:#8F00FF;" cx="124.23" cy="171" rx="1.03" ry="1"/>
		<path style="fill:#165BA9;" d="M134.48,169H255.2c1.1,0,2,0.9,2,2l0,0c0,1.1-0.9,2-2,2H134.48c-1.1,0-2-0.9-2-2l0,0
			C132.48,169.9,133.38,169,134.48,169z"/>
		<ellipse style="fill:#13FF00;" cx="124.23" cy="191" rx="1.03" ry="1"/>
		<path style="fill:#165BA9;" d="M134.48,189H255.2c1.1,0,2,0.9,2,2l0,0c0,1.1-0.9,2-2,2H134.48c-1.1,0-2-0.9-2-2l0,0
			C132.48,189.9,133.38,189,134.48,189z"/>
		<ellipse style="fill:#EC00FF;" cx="124.23" cy="210" rx="1.03" ry="1"/>
		<path style="fill:#165BA9;" d="M134.48,208H255.2c1.1,0,2,0.9,2,2l0,0c0,1.1-0.9,2-2,2H134.48c-1.1,0-2-0.9-2-2l0,0
			C132.48,208.9,133.38,208,134.48,208z"/>
		
			<linearGradient id="SVGID_1_" gradientUnits="userSpaceOnUse" x1="186.6292" y1="442.0207" x2="197.3692" y2="453.7207" gradientTransform="matrix(1 0 0 1 0 -136)">
			<stop  offset="0" style="stop-color:#4518D3"/>
			<stop  offset="1" style="stop-color:#1378D3"/>
		</linearGradient>
		<circle style="fill:url(#SVGID_1_);" cx="191.2" cy="311" r="10"/>
		<path style="fill:#E5E4EA;" d="M126.69,230h127.02c1.93,0,3.49,1.56,3.49,3.49v24.02c0,1.93-1.56,3.49-3.49,3.49H126.69
			c-1.93,0-3.49-1.56-3.49-3.49v-24.02C123.2,231.56,124.76,230,126.69,230z"/>
		<path style="fill:#E5E4EA;" d="M151.9,273h30.6c4.25,0,7.7,3.45,7.7,7.7v0.6c0,4.25-3.45,7.7-7.7,7.7h-30.6
			c-4.25,0-7.7-3.45-7.7-7.7v-0.6C144.2,276.45,147.65,273,151.9,273z"/>
		<path style="fill:#E5E4EA;" d="M222.9,273.15h26.24c4.25,0,7.7,3.45,7.7,7.7v0.6c0,4.25-3.45,7.7-7.7,7.7H222.9
			c-4.25,0-7.7-3.45-7.7-7.7v-0.6C215.2,276.6,218.65,273.15,222.9,273.15z"/>
		<rect x="128.2" y="275" style="fill:#00F717;" width="3" height="13"/>
		<rect x="123.2" y="280" style="fill:#00F717;" width="13" height="3"/>
		<rect x="196.2" y="280" style="fill:#F40012;" width="13" height="3"/>
		<circle style="fill:#262626;" cx="284.38" cy="320.65" r="41.75"/>
		<path style="fill:none;stroke:#FFFFFF;stroke-width:3;stroke-miterlimit:10;" d="M283.92,295H274l-2.19,2.19v5.57l0.6,2.58h23.86
			l1-2.58v-5.57l-1.82-2.19H283.92z"/>
		<path style="fill:none;stroke:#FFFFFF;stroke-width:3;stroke-miterlimit:10;" d="M272.85,307.33l-2.39,2.78v33l2.39,3.18h23.06
			l2.39-3.58c-0.13-10.87-0.26-21.74-0.4-32.61l-2.38-2.78L272.85,307.33z"/>
		<path style="fill:#FD51D9;" d="M294.58,326.36c-0.01-2.95-2.4-5.33-5.35-5.33c-2.09,0-3.98,1.23-4.85,3.13
			c-1.22-2.68-4.39-3.87-7.07-2.65c-1.9,0.87-3.12,2.76-3.13,4.85c-0.01,1.28,0.45,2.52,1.29,3.48c0.18,0.21,0.39,0.42,0.6,0.6
			l8.14,8.08c0.05,0.05,0.11,0.08,0.18,0.08s0.14-0.03,0.19-0.08l8.44-8.39l0,0c0.56-0.56,0.99-1.25,1.25-2
			C294.47,327.56,294.58,326.96,294.58,326.36z"/>
		<circle style="fill:#262626;" cx="352.6" cy="214.72" r="20.15"/>
		<path style="fill:none;stroke:#FFFFFF;stroke-width:2;stroke-miterlimit:10;" d="M353.83,202.34H349l-1,1.06v2.68l0.28,1.25h11.52
			l0.48-1.25v-2.68l-0.86-1.06H353.83z"/>
		<path style="fill:none;stroke:#FFFFFF;stroke-width:2;stroke-miterlimit:10;" d="M348.48,208.29l-1.15,1.34v15.94l1.15,1.53h11.14
			l1.15-1.73c-0.06-5.24-0.12-10.49-0.19-15.74l-1.15-1.34H348.48z"/>
		<path style="fill:#E6A63C;" d="M351.5,212h4.75c0.53,0,0.96,0.43,0.96,0.96v9.08c0,0.53-0.43,0.96-0.96,0.96h-4.75
			c-0.53,0-0.96-0.43-0.96-0.96v-9.08C350.54,212.43,350.97,212,351.5,212z"/>
		<circle style="fill:#262626;" cx="316.77" cy="77.69" r="17.44"/>
		<path style="fill:none;stroke:#FFFFFF;stroke-width:2;stroke-miterlimit:10;" d="M316.57,67h-4.15l-0.91,0.91v2.33l0.25,1.08h10
			l0.42-1.08v-2.35l-0.75-0.91L316.57,67z"/>
		<path style="fill:none;stroke:#FFFFFF;stroke-width:2;stroke-miterlimit:10;" d="M312,72.13l-1,1.16v13.78l1,1.33h9.63l1-1.49
			c-0.06-4.54-0.12-9.08-0.17-13.62l-1-1.16H312z"/>
		<path style="fill:#8D4DE8;" d="M314.68,75.34h3.85c0.53,0,0.96,0.43,0.96,0.96v7.6c0,0.53-0.43,0.96-0.96,0.96h-3.85
			c-0.53,0-0.96-0.43-0.96-0.96v-7.6C313.72,75.77,314.15,75.34,314.68,75.34z"/>
		<ellipse style="fill:#262626;" cx="35.51" cy="51.59" rx="26.69" ry="26.41"/>
		<path style="fill:none;stroke:#FFFFFF;stroke-width:2;stroke-miterlimit:10;" d="M35.22,35.36h-6.36l-1.4,1.39v3.52l0.38,1.63
			H43.1l0.63-1.63v-3.52l-1.14-1.39H35.22z"/>
		<path style="fill:none;stroke:#FFFFFF;stroke-width:2;stroke-miterlimit:10;" d="M28.14,43.16l-1.53,1.76V65.8l1.53,2h14.74
			l1.53-2.27c-0.09-6.87-0.17-13.74-0.25-20.63l-1.53-1.76L28.14,43.16z"/>
		<path style="fill:#0B78E3;" d="M31.81,48.02h6.91c0.53,0,0.96,0.43,0.96,0.96v12.5c0,0.53-0.43,0.96-0.96,0.96h-6.91
			c-0.53,0-0.96-0.43-0.96-0.96v-12.5C30.85,48.45,31.28,48.02,31.81,48.02z"/>
		<ellipse style="fill:#262626;" cx="62.27" cy="176.74" rx="17.93" ry="17.74"/>
		<path style="fill:none;stroke:#FFFFFF;stroke-width:2;stroke-miterlimit:10;" d="M62.07,165.84H57.8l-0.93,0.93v2.37l0.25,1.1
			h10.25c0.14-0.37,0.28-0.74,0.43-1.1v-2.37l-0.77-0.93H62.07z"/>
		<path style="fill:none;stroke:#FFFFFF;stroke-width:2;stroke-miterlimit:10;" d="M57.32,171.08l-1,1.18v14l1,1.35h9.9l1-1.52
			c-0.06-4.62-0.12-9.24-0.17-13.86l-1-1.18L57.32,171.08z"/>
		<path style="fill:#7ED321;" d="M60.1,174.35h4.01c0.53,0,0.96,0.43,0.96,0.96v7.76c0,0.53-0.43,0.96-0.96,0.96H60.1
			c-0.53,0-0.96-0.43-0.96-0.96v-7.76C59.14,174.78,59.57,174.35,60.1,174.35z"/>
		<ellipse style="fill:#262626;" cx="25.47" cy="277.6" rx="23.6" ry="23.35"/>
		<path style="fill:none;stroke:#FFFFFF;stroke-width:2;stroke-miterlimit:10;" d="M23.34,263.25h-5.62l-1.23,1.23v3.11l0.33,1.45
			h13.49c0.19-0.48,0.38-1,0.56-1.45v-3.11l-1-1.23H23.34z"/>
		<path style="fill:none;stroke:#FFFFFF;stroke-width:2;stroke-miterlimit:10;" d="M17.08,270.15l-1.35,1.56v18.46l1.35,1.83h13
			l1.35-2c-0.08-6.08-0.16-12.16-0.23-18.24l-1.34-1.56L17.08,270.15z"/>
		<path style="fill:#EA3B00;" d="M20.44,274.45h5.89c0.53,0,0.96,0.43,0.96,0.96v10.83c0,0.53-0.43,0.96-0.96,0.96h-5.89
			c-0.53,0-0.96-0.43-0.96-0.96v-10.83C19.48,274.88,19.91,274.45,20.44,274.45z"/>
	</g>
</g>
</svg>
